<svg width="789.33505859375px" height="122.021240234375px" xmlns="http://www.w3.org/2000/svg" viewBox="-144.667529296875 13.9893798828125 789.33505859375 122.021240234375" style="background: none;" preserveAspectRatio="xMidYMid"><defs><linearGradient id="editing-sticker-gradient" x1="0.47907305787676235" y1="0.20073078492205276" x2="0.5209269421232376" y2="0.7992692150779472"><stop offset="0" stop-color="#df1317"></stop><stop offset="1" stop-color="#07abcc"></stop></linearGradient><filter id="editing-sticker" x="-100%" y="-100%" width="300%" height="300%"><feMorphology operator="erode" radius="1" in="SourceAlpha" result="alpha-erode"></feMorphology><feConvolveMatrix order="3,3" divisor="1" kernelMatrix="0 1 0 1 1 1 0 1 0" in="alpha-erode" result="alpha-round"></feConvolveMatrix><feMorphology operator="dilate" radius="3.5" in="alpha-round" result="dilate-shadow"></feMorphology><feGaussianBlur in="dilate-shadow" stdDeviation="1.5" result="shadow"></feGaussianBlur><feFlood flood-color="#fff" result="flood-sticker"></feFlood><feComposite operator="in" in="flood-sticker" in2="alpha-round" result="comp-sticker"></feComposite><feMorphology operator="dilate" radius="3" in="comp-sticker" result="morph-sticker"></feMorphology><feConvolveMatrix order="3,3" divisor="1" kernelMatrix="0 1 0 1 1 1 0 1 0" in="morph-sticker" result="sticker"></feConvolveMatrix><feMerge><feMergeNode in="shadow"></feMergeNode><feMergeNode in="sticker"></feMergeNode><feMergeNode in="SourceGraphic"></feMergeNode></feMerge></filter></defs><g filter="url(#editing-sticker)"><g transform="translate(-32.399989038705826, 104.43218803405762)"><path d="M30.21-33.92L30.21-33.92L30.21-33.92Q25.02-33.92 21.25-35.65L21.25-35.65L19.20-25.28L31.55-25.28L31.55-25.28Q31.55-21.89 29.86-19.74L29.86-19.74L29.86-19.74Q28.16-17.60 25.09-17.60L25.09-17.60L25.09-17.60Q21.76-17.60 18.69-18.82L18.69-18.82L18.69-18.82Q18.05-19.07 17.98-19.14L17.98-19.14L14.34 0L0.38 0L8.51-42.24L37.06-42.24L37.06-42.24Q37.06-38.34 35.23-36.13L35.23-36.13L35.23-36.13Q33.41-33.92 30.21-33.92ZM50.75-3.52L50.75-3.52L50.75-3.52Q48.77 1.28 42.43 1.28L42.43 1.28L42.43 1.28Q39.23 1.28 37.18-0.96L37.18-0.96L37.18-0.96Q35.52-2.82 35.52-4.93L35.52-4.93L35.52-4.93Q35.52-9.73 37.76-20.22L37.76-20.22L42.43-44.80L55.42-46.08L49.22-13.70L49.22-13.70Q48.13-8.96 48.13-7.30L48.13-7.30L48.13-7.30Q48.13-3.65 50.75-3.52ZM58.98-1.92L58.98-1.92L58.98-1.92Q57.47-3.58 56.80-6.21L56.80-6.21L56.80-6.21Q56.13-8.83 56.13-13.12L56.13-13.12L56.13-13.12Q56.13-17.41 57.60-21.31L57.60-21.31L57.60-21.31Q59.07-25.22 61.76-28.03L61.76-28.03L61.76-28.03Q67.26-33.92 76.35-33.92L76.35-33.92L76.35-33.92Q79.62-33.92 81.98-32.83L81.98-32.83L92.93-33.92L88.19-8.96L88.19-8.96Q88-8.19 88-6.78L88-6.78L88-6.78Q88-5.38 88.86-4.48L88.86-4.48L88.86-4.48Q89.73-3.58 91.01-3.46L91.01-3.46L91.01-3.46Q90.37-1.28 88.03 0L88.03 0L88.03 0Q85.70 1.28 83.07 1.28L83.07 1.28L83.07 1.28Q80.45 1.28 78.69 0.29L78.69 0.29L78.69 0.29Q76.93-0.70 76.42-2.37L76.42-2.37L76.42-2.37Q75.39-0.77 73.22 0.26L73.22 0.26L73.22 0.26Q71.04 1.28 68.13 1.28L68.13 1.28L68.13 1.28Q65.22 1.28 62.85 0.51L62.85 0.51L62.85 0.51Q60.48-0.26 58.98-1.92ZM72.48-27.90L72.48-27.90L72.48-27.90Q71.74-26.75 71.10-24.80L71.10-24.80L71.10-24.80Q70.46-22.85 69.41-17.63L69.41-17.63L69.41-17.63Q68.35-12.42 68.35-8.70L68.35-8.70L68.35-8.70Q68.35-4.99 68.93-3.90L68.93-3.90L68.93-3.90Q69.50-2.82 70.53-2.82L70.53-2.82L70.53-2.82Q72.58-2.82 74.08-4.77L74.08-4.77L74.08-4.77Q75.58-6.72 76.16-10.18L76.16-10.18L79.55-28.93L79.55-28.93Q78.21-30.08 76.64-30.08L76.64-30.08L76.64-30.08Q75.07-30.08 74.14-29.57L74.14-29.57L74.14-29.57Q73.22-29.06 72.48-27.90ZM115.52-22.46L115.52-22.46L115.52-22.46Q116.42-24.83 116.42-26.88L116.42-26.88L116.42-26.88Q116.42-30.66 113.34-30.66L113.34-30.66L113.34-30.66Q111.74-30.66 110.43-29.22L110.43-29.22L110.43-29.22Q109.12-27.78 109.12-25.98L109.12-25.98L109.12-25.98Q109.12-24.70 110.14-23.68L110.14-23.68L110.14-23.68Q111.62-22.27 115.39-19.97L115.39-19.97L115.39-19.97Q119.17-17.66 120.61-15.78L120.61-15.78L120.61-15.78Q122.05-13.89 122.05-11.30L122.05-11.30L122.05-11.30Q122.05-8.70 120.80-6.34L120.80-6.34L120.80-6.34Q119.55-3.97 117.31-2.30L117.31-2.30L117.31-2.30Q112.51 1.28 104.83 1.28L104.83 1.28L104.83 1.28Q100.67 1.28 97.47-0.90L97.47-0.90L97.47-0.90Q94.27-3.01 94.27-5.50L94.27-5.50L94.27-5.50Q94.27-8 96.10-9.47L96.10-9.47L96.10-9.47Q97.92-10.94 100.61-10.94L100.61-10.94L100.61-10.94Q103.30-10.94 104.96-9.92L104.96-9.92L104.96-9.92Q104.13-7.81 104.13-6.40L104.13-6.40L104.13-6.40Q104.13-2.18 107.71-2.18L107.71-2.18L107.71-2.18Q109.25-2.18 110.27-3.14L110.27-3.14L110.27-3.14Q111.30-4.10 111.30-5.76L111.30-5.76L111.30-5.76Q111.30-9.02 105.79-12.48L105.79-12.48L105.79-12.48Q101.31-15.42 100.29-16.58L100.29-16.58L100.29-16.58Q98.56-18.62 98.56-21.18L98.56-21.18L98.56-21.18Q98.56-23.74 99.78-26.18L99.78-26.18L99.78-26.18Q100.99-28.61 103.23-30.34L103.23-30.34L103.23-30.34Q107.90-33.92 116.03-33.92L116.03-33.92L116.03-33.92Q120.19-33.92 122.66-32.26L122.66-32.26L122.66-32.26Q125.12-30.59 125.12-27.78L125.12-27.78L125.12-27.78Q125.12-24.96 123.42-23.36L123.42-23.36L123.42-23.36Q121.73-21.76 118.66-21.76L118.66-21.76L118.66-21.76Q116.54-21.76 115.52-22.46ZM144-30.34L144-30.34L144-30.34Q147.46-33.92 154.75-33.92L154.75-33.92L154.75-33.92Q158.78-33.92 160.99-31.78L160.99-31.78L160.99-31.78Q163.20-29.63 163.20-25.70L163.20-25.70L163.20-25.70Q163.20-21.76 160.99-18.98L160.99-18.98L160.99-18.98Q158.78-16.19 154.69-15.04L154.69-15.04L154.69-15.04Q155.01-13.76 155.46-12.42L155.46-12.42L156.35-9.86L156.35-9.86Q157.57-6.59 158.53-5.44L158.53-5.44L158.53-5.44Q159.49-4.29 160.77-3.90L160.77-3.90L160.77-3.90Q160.06-1.28 157.50 0.13L157.50 0.13L157.50 0.13Q155.46 1.28 152.64 1.28L152.64 1.28L152.64 1.28Q144.38 1.28 143.30-11.46L143.30-11.46L143.30-11.46Q143.10-13.25 143.10-15.04L143.10-15.04L143.10-15.04Q146.30-15.94 148.54-18.94L148.54-18.94L148.54-18.94Q150.78-21.95 150.78-25.47L150.78-25.47L150.78-25.47Q150.78-28.99 148.29-28.99L148.29-28.99L148.29-28.99Q146.50-28.99 145.09-27.01L145.09-27.01L145.09-27.01Q143.68-25.02 143.04-21.63L143.04-21.63L138.82 0L125.89 1.28L134.85-44.80L147.71-46.08L146.24-38.46L146.24-38.46Q145.28-33.09 144-30.34ZM204.29-29.57L204.29-29.57L204.29-29.57Q205.25-31.49 205.25-33.28L205.25-33.28L205.25-33.28Q205.25-35.07 205.06-36.06L205.06-36.06L205.06-36.06Q204.86-37.06 204.42-37.82L204.42-37.82L204.42-37.82Q203.46-39.49 201.54-39.49L201.54-39.49L201.54-39.49Q199.17-39.49 197.25-37.76L197.25-37.76L197.25-37.76Q195.20-35.97 195.20-33.15L195.20-33.15L195.20-33.15Q195.20-31.36 196.45-29.98L196.45-29.98L196.45-29.98Q197.70-28.61 199.62-27.33L199.62-27.33L199.62-27.33Q201.54-26.05 203.71-24.77L203.71-24.77L203.71-24.77Q205.89-23.49 207.81-21.95L207.81-21.95L207.81-21.95Q212.22-18.43 212.22-13.70L212.22-13.70L212.22-13.70Q212.22-10.50 210.53-7.78L210.53-7.78L210.53-7.78Q208.83-5.06 206.02-3.07L206.02-3.07L206.02-3.07Q199.87 1.28 191.74 1.28L191.74 1.28L191.74 1.28Q185.15 1.28 181.76-0.86L181.76-0.86L181.76-0.86Q178.37-3.01 178.37-6.27L178.37-6.27L178.37-6.27Q178.37-12.10 182.91-13.57L182.91-13.57L182.91-13.57Q184.19-14.02 186.14-14.02L186.14-14.02L186.14-14.02Q188.10-14.02 190.34-13.18L190.34-13.18L190.34-13.18Q189.31-10.56 189.31-8.19L189.31-8.19L189.31-8.19Q189.31-3.07 192.96-3.07L192.96-3.07L192.96-3.07Q195.33-3.07 197.28-4.80L197.28-4.80L197.28-4.80Q199.23-6.53 199.23-8.48L199.23-8.48L199.23-8.48Q199.23-10.43 197.98-11.84L197.98-11.84L197.98-11.84Q196.74-13.25 194.88-14.37L194.88-14.37L194.88-14.37Q193.02-15.49 190.88-16.58L190.88-16.58L190.88-16.58Q188.74-17.66 186.88-19.20L186.88-19.20L186.88-19.20Q182.53-22.72 182.53-28.35L182.53-28.35L182.53-28.35Q182.53-32 184.32-34.85L184.32-34.85L184.32-34.85Q186.11-37.70 188.99-39.62L188.99-39.62L188.99-39.62Q194.75-43.52 201.82-43.52L201.82-43.52L201.82-43.52Q208.90-43.52 212.32-41.41L212.32-41.41L212.32-41.41Q215.74-39.30 215.74-35.71L215.74-35.71L215.74-35.71Q215.74-32.58 213.31-30.59L213.31-30.59L213.31-30.59Q211.20-28.93 208.64-28.93L208.64-28.93L208.64-28.93Q206.08-28.93 204.29-29.57ZM219.87-1.92L219.87-1.92L219.87-1.92Q218.37-3.58 217.70-6.21L217.70-6.21L217.70-6.21Q217.02-8.83 217.02-13.12L217.02-13.12L217.02-13.12Q217.02-17.41 218.50-21.31L218.50-21.31L218.50-21.31Q219.97-25.22 222.66-28.03L222.66-28.03L222.66-28.03Q228.16-33.92 237.25-33.92L237.25-33.92L237.25-33.92Q240.51-33.92 242.88-32.83L242.88-32.83L253.82-33.92L249.09-8.96L249.09-8.96Q248.90-8.19 248.90-6.78L248.90-6.78L248.90-6.78Q248.90-5.38 249.76-4.48L249.76-4.48L249.76-4.48Q250.62-3.58 251.90-3.46L251.90-3.46L251.90-3.46Q251.26-1.28 248.93 0L248.93 0L248.93 0Q246.59 1.28 243.97 1.28L243.97 1.28L243.97 1.28Q241.34 1.28 239.58 0.29L239.58 0.29L239.58 0.29Q237.82-0.70 237.31-2.37L237.31-2.37L237.31-2.37Q236.29-0.77 234.11 0.26L234.11 0.26L234.11 0.26Q231.94 1.28 229.02 1.28L229.02 1.28L229.02 1.28Q226.11 1.28 223.74 0.51L223.74 0.51L223.74 0.51Q221.38-0.26 219.87-1.92ZM233.38-27.90L233.38-27.90L233.38-27.90Q232.64-26.75 232.00-24.80L232.00-24.80L232.00-24.80Q231.36-22.85 230.30-17.63L230.30-17.63L230.30-17.63Q229.25-12.42 229.25-8.70L229.25-8.70L229.25-8.70Q229.25-4.99 229.82-3.90L229.82-3.90L229.82-3.90Q230.40-2.82 231.42-2.82L231.42-2.82L231.42-2.82Q233.47-2.82 234.98-4.77L234.98-4.77L234.98-4.77Q236.48-6.72 237.06-10.18L237.06-10.18L240.45-28.93L240.45-28.93Q239.10-30.08 237.54-30.08L237.54-30.08L237.54-30.08Q235.97-30.08 235.04-29.57L235.04-29.57L235.04-29.57Q234.11-29.06 233.38-27.90ZM259.81-1.92L259.81-1.92L259.81-1.92Q258.30-3.58 257.63-6.21L257.63-6.21L257.63-6.21Q256.96-8.83 256.96-13.12L256.96-13.12L256.96-13.12Q256.96-17.41 258.43-21.31L258.43-21.31L258.43-21.31Q259.90-25.22 262.59-28.03L262.59-28.03L262.59-28.03Q268.10-33.92 277.18-33.92L277.18-33.92L277.18-33.92Q280.45-33.92 282.82-32.83L282.82-32.83L293.76-33.92L289.02-8.96L289.02-8.96Q288.83-8.19 288.83-6.78L288.83-6.78L288.83-6.78Q288.83-5.38 289.70-4.48L289.70-4.48L289.70-4.48Q290.56-3.58 291.84-3.46L291.84-3.46L291.84-3.46Q291.20-1.28 288.86 0L288.86 0L288.86 0Q286.53 1.28 283.90 1.28L283.90 1.28L283.90 1.28Q281.28 1.28 279.52 0.29L279.52 0.29L279.52 0.29Q277.76-0.70 277.25-2.37L277.25-2.37L277.25-2.37Q276.22-0.77 274.05 0.26L274.05 0.26L274.05 0.26Q271.87 1.28 268.96 1.28L268.96 1.28L268.96 1.28Q266.05 1.28 263.68 0.51L263.68 0.51L263.68 0.51Q261.31-0.26 259.81-1.92ZM273.31-27.90L273.31-27.90L273.31-27.90Q272.58-26.75 271.94-24.80L271.94-24.80L271.94-24.80Q271.30-22.85 270.24-17.63L270.24-17.63L270.24-17.63Q269.18-12.42 269.18-8.70L269.18-8.70L269.18-8.70Q269.18-4.99 269.76-3.90L269.76-3.90L269.76-3.90Q270.34-2.82 271.36-2.82L271.36-2.82L271.36-2.82Q273.41-2.82 274.91-4.77L274.91-4.77L274.91-4.77Q276.42-6.72 276.99-10.18L276.99-10.18L280.38-28.93L280.38-28.93Q279.04-30.08 277.47-30.08L277.47-30.08L277.47-30.08Q275.90-30.08 274.98-29.57L274.98-29.57L274.98-29.57Q274.05-29.06 273.31-27.90ZM316.35-22.46L316.35-22.46L316.35-22.46Q317.25-24.83 317.25-26.88L317.25-26.88L317.25-26.88Q317.25-30.66 314.18-30.66L314.18-30.66L314.18-30.66Q312.58-30.66 311.26-29.22L311.26-29.22L311.26-29.22Q309.95-27.78 309.95-25.98L309.95-25.98L309.95-25.98Q309.95-24.70 310.98-23.68L310.98-23.68L310.98-23.68Q312.45-22.27 316.22-19.97L316.22-19.97L316.22-19.97Q320.00-17.66 321.44-15.78L321.44-15.78L321.44-15.78Q322.88-13.89 322.88-11.30L322.88-11.30L322.88-11.30Q322.88-8.70 321.63-6.34L321.63-6.34L321.63-6.34Q320.38-3.97 318.14-2.30L318.14-2.30L318.14-2.30Q313.34 1.28 305.66 1.28L305.66 1.28L305.66 1.28Q301.50 1.28 298.30-0.90L298.30-0.90L298.30-0.90Q295.10-3.01 295.10-5.50L295.10-5.50L295.10-5.50Q295.10-8 296.93-9.47L296.93-9.47L296.93-9.47Q298.75-10.94 301.44-10.94L301.44-10.94L301.44-10.94Q304.13-10.94 305.79-9.92L305.79-9.92L305.79-9.92Q304.96-7.81 304.96-6.40L304.96-6.40L304.96-6.40Q304.96-2.18 308.54-2.18L308.54-2.18L308.54-2.18Q310.08-2.18 311.10-3.14L311.10-3.14L311.10-3.14Q312.13-4.10 312.13-5.76L312.13-5.76L312.13-5.76Q312.13-9.02 306.62-12.48L306.62-12.48L306.62-12.48Q302.14-15.42 301.12-16.58L301.12-16.58L301.12-16.58Q299.39-18.62 299.39-21.18L299.39-21.18L299.39-21.18Q299.39-23.74 300.61-26.18L300.61-26.18L300.61-26.18Q301.82-28.61 304.06-30.34L304.06-30.34L304.06-30.34Q308.74-33.92 316.86-33.92L316.86-33.92L316.86-33.92Q321.02-33.92 323.49-32.26L323.49-32.26L323.49-32.26Q325.95-30.59 325.95-27.78L325.95-27.78L325.95-27.78Q325.95-24.96 324.26-23.36L324.26-23.36L324.26-23.36Q322.56-21.76 319.49-21.76L319.49-21.76L319.49-21.76Q317.38-21.76 316.35-22.46ZM354.75 0L340.80 0L348.93-42.24L363.01-42.24L354.75 0ZM410.50 1.28L410.50 1.28L410.50 1.28Q402.75 1.28 402.75-4.74L402.75-4.74L402.75-4.74Q402.75-7.36 403.87-12.45L403.87-12.45L403.87-12.45Q404.99-17.54 405.38-19.58L405.38-19.58L405.38-19.58Q406.27-24.26 406.27-25.73L406.27-25.73L406.27-25.73Q406.27-28.99 403.84-28.99L403.84-28.99L403.84-28.99Q402.24-28.99 400.70-26.78L400.70-26.78L400.70-26.78Q399.17-24.58 398.46-20.16L398.46-20.16L394.50 0L382.02 1.28L385.47-16.13L385.47-16.13Q386.05-19.01 386.56-22.27L386.56-22.27L386.56-22.27Q387.07-25.54 387.07-26.05L387.07-26.05L387.07-26.05Q387.07-28.99 384.90-28.99L384.90-28.99L384.90-28.99Q383.42-28.99 381.82-26.82L381.82-26.82L381.82-26.82Q380.22-24.64 379.33-20.16L379.33-20.16L375.42 0L362.82 1.28L369.54-32.64L379.97-33.92L378.88-27.46L378.88-27.46Q380.54-30.91 383.62-32.42L383.62-32.42L383.62-32.42Q386.69-33.92 391.49-33.92L391.49-33.92L391.49-33.92Q394.24-33.92 396.03-32.58L396.03-32.58L396.03-32.58Q397.82-31.23 398.40-29.06L398.40-29.06L398.40-29.06Q399.49-31.30 402.27-32.61L402.27-32.61L402.27-32.61Q405.06-33.92 408.48-33.92L408.48-33.92L408.48-33.92Q411.90-33.92 413.60-33.18L413.60-33.18L413.60-33.18Q415.30-32.45 416.32-31.23L416.32-31.23L416.32-31.23Q418.05-28.99 418.05-24.90L418.05-24.90L418.05-24.90Q418.05-20.86 416.32-12.48L416.32-12.48L416.32-12.48Q415.42-8.38 415.42-6.88L415.42-6.88L415.42-6.88Q415.42-5.38 416.29-4.48L416.29-4.48L416.29-4.48Q417.15-3.58 418.43-3.46L418.43-3.46L418.43-3.46Q417.79-1.28 415.58 0L415.58 0L415.58 0Q413.38 1.28 410.50 1.28ZM426.14-1.92L426.14-1.92L426.14-1.92Q424.64-3.58 423.97-6.21L423.97-6.21L423.97-6.21Q423.30-8.83 423.30-13.12L423.30-13.12L423.30-13.12Q423.30-17.41 424.77-21.31L424.77-21.31L424.77-21.31Q426.24-25.22 428.93-28.03L428.93-28.03L428.93-28.03Q434.43-33.92 443.52-33.92L443.52-33.92L443.52-33.92Q446.78-33.92 449.15-32.83L449.15-32.83L460.10-33.92L455.36-8.96L455.36-8.96Q455.17-8.19 455.17-6.78L455.17-6.78L455.17-6.78Q455.17-5.38 456.03-4.48L456.03-4.48L456.03-4.48Q456.90-3.58 458.18-3.46L458.18-3.46L458.18-3.46Q457.54-1.28 455.20 0L455.20 0L455.20 0Q452.86 1.28 450.24 1.28L450.24 1.28L450.24 1.28Q447.62 1.28 445.86 0.29L445.86 0.29L445.86 0.29Q444.10-0.70 443.58-2.37L443.58-2.37L443.58-2.37Q442.56-0.77 440.38 0.26L440.38 0.26L440.38 0.26Q438.21 1.28 435.30 1.28L435.30 1.28L435.30 1.28Q432.38 1.28 430.02 0.51L430.02 0.51L430.02 0.51Q427.65-0.26 426.14-1.92ZM439.65-27.90L439.65-27.90L439.65-27.90Q438.91-26.75 438.27-24.80L438.27-24.80L438.27-24.80Q437.63-22.85 436.58-17.63L436.58-17.63L436.58-17.63Q435.52-12.42 435.52-8.70L435.52-8.70L435.52-8.70Q435.52-4.99 436.10-3.90L436.10-3.90L436.10-3.90Q436.67-2.82 437.70-2.82L437.70-2.82L437.70-2.82Q439.74-2.82 441.25-4.77L441.25-4.77L441.25-4.77Q442.75-6.72 443.33-10.18L443.33-10.18L446.72-28.93L446.72-28.93Q445.38-30.08 443.81-30.08L443.81-30.08L443.81-30.08Q442.24-30.08 441.31-29.57L441.31-29.57L441.31-29.57Q440.38-29.06 439.65-27.90ZM467.84-26.75L467.84-26.75L467.84-26.75Q470.02-29.82 473.31-31.87L473.31-31.87L473.31-31.87Q476.61-33.92 480.64-33.92L480.64-33.92L480.64-33.92Q484.67-33.92 486.59-32.64L486.59-32.64L499.14-33.92L494.78-9.34L494.78-9.34Q492.54 3.20 487.81 8.13L487.81 8.13L487.81 8.13Q483.26 12.80 474.43 12.80L474.43 12.80L474.43 12.80Q467.71 12.80 463.87 10.69L463.87 10.69L463.87 10.69Q460.03 8.58 460.03 5.06L460.03 5.06L460.03 5.06Q460.03 2.43 462.02 0.93L462.02 0.93L462.02 0.93Q464.00-0.58 467.07-0.58L467.07-0.58L467.07-0.58Q469.76-0.58 471.81 0.64L471.81 0.64L471.81 0.64Q473.02 1.28 473.60 2.18L473.60 2.18L473.60 2.18Q472.13 3.46 472.13 5.57L472.13 5.57L472.13 5.57Q472.13 8.32 474.69 8.32L474.69 8.32L474.69 8.32Q478.98 8.32 481.41-1.79L481.41-1.79L481.41-1.79Q482.11-4.54 482.69-7.30L482.69-7.30L482.69-7.30Q479.81-3.78 473.28-3.78L473.28-3.78L473.28-3.78Q468.74-3.78 466.11-5.95L466.11-5.95L466.11-5.95Q463.49-8.13 463.49-13.25L463.49-13.25L463.49-13.25Q463.49-16.45 464.58-20.06L464.58-20.06L464.58-20.06Q465.66-23.68 467.84-26.75ZM476.16-13.06L476.16-13.06L476.16-13.06Q476.16-8.70 478.40-8.70L478.40-8.70L478.40-8.70Q479.94-8.70 481.41-10.37L481.41-10.37L481.41-10.37Q482.56-11.71 483.01-13.70L483.01-13.70L486.27-30.14L486.27-30.14Q485.95-30.21 485.63-30.34L485.63-30.34L485.63-30.34Q484.99-30.59 484.16-30.59L484.16-30.59L484.16-30.59Q480.26-30.59 477.95-24.19L477.95-24.19L477.95-24.19Q476.16-19.20 476.16-13.06ZM527.55-10.82L527.55-10.82L527.55-10.82Q529.15-9.73 529.15-7.33L529.15-7.33L529.15-7.33Q529.15-4.93 527.94-3.39L527.94-3.39L527.94-3.39Q526.72-1.86 524.74-0.83L524.74-0.83L524.74-0.83Q520.64 1.28 516.22 1.28L516.22 1.28L516.22 1.28Q511.81 1.28 509.22 0.32L509.22 0.32L509.22 0.32Q506.62-0.64 504.90-2.43L504.90-2.43L504.90-2.43Q501.50-5.82 501.50-12.03L501.50-12.03L501.50-12.03Q501.50-21.70 506.75-27.58L506.75-27.58L506.75-27.58Q512.38-33.92 522.18-33.92L522.18-33.92L522.18-33.92Q528.26-33.92 531.26-31.36L531.26-31.36L531.26-31.36Q533.50-29.44 533.50-26.30L533.50-26.30L533.50-26.30Q533.50-15.04 514.05-15.04L514.05-15.04L514.05-15.04Q513.79-13.38 513.79-11.97L513.79-11.97L513.79-11.97Q513.79-9.02 515.10-7.90L515.10-7.90L515.10-7.90Q516.42-6.78 518.85-6.78L518.85-6.78L518.85-6.78Q521.28-6.78 523.87-7.90L523.87-7.90L523.87-7.90Q526.46-9.02 527.55-10.82ZM514.50-17.79L514.50-17.79L514.50-17.79Q519.04-17.79 521.66-20.61L521.66-20.61L521.66-20.61Q524.29-23.30 524.29-27.58L524.29-27.58L524.29-27.58Q524.29-29.06 523.74-29.86L523.74-29.86L523.74-29.86Q523.20-30.66 522.11-30.66L522.11-30.66L522.11-30.66Q521.02-30.66 520.10-30.24L520.10-30.24L520.10-30.24Q519.17-29.82 518.21-28.42L518.21-28.42L518.21-28.42Q515.84-25.22 514.50-17.79ZM554.82-22.46L554.82-22.46L554.82-22.46Q555.71-24.83 555.71-26.88L555.71-26.88L555.71-26.88Q555.71-30.66 552.64-30.66L552.64-30.66L552.64-30.66Q551.04-30.66 549.73-29.22L549.73-29.22L549.73-29.22Q548.42-27.78 548.42-25.98L548.42-25.98L548.42-25.98Q548.42-24.70 549.44-23.68L549.44-23.68L549.44-23.68Q550.91-22.27 554.69-19.97L554.69-19.97L554.69-19.97Q558.46-17.66 559.90-15.78L559.90-15.78L559.90-15.78Q561.34-13.89 561.34-11.30L561.34-11.30L561.34-11.30Q561.34-8.70 560.10-6.34L560.10-6.34L560.10-6.34Q558.85-3.97 556.61-2.30L556.61-2.30L556.61-2.30Q551.81 1.28 544.13 1.28L544.13 1.28L544.13 1.28Q539.97 1.28 536.77-0.90L536.77-0.90L536.77-0.90Q533.57-3.01 533.57-5.50L533.57-5.50L533.57-5.50Q533.57-8 535.39-9.47L535.39-9.47L535.39-9.47Q537.22-10.94 539.90-10.94L539.90-10.94L539.90-10.94Q542.59-10.94 544.26-9.92L544.26-9.92L544.26-9.92Q543.42-7.81 543.42-6.40L543.42-6.40L543.42-6.40Q543.42-2.18 547.01-2.18L547.01-2.18L547.01-2.18Q548.54-2.18 549.57-3.14L549.57-3.14L549.57-3.14Q550.59-4.10 550.59-5.76L550.59-5.76L550.59-5.76Q550.59-9.02 545.09-12.48L545.09-12.48L545.09-12.48Q540.61-15.42 539.58-16.58L539.58-16.58L539.58-16.58Q537.86-18.62 537.86-21.18L537.86-21.18L537.86-21.18Q537.86-23.74 539.07-26.18L539.07-26.18L539.07-26.18Q540.29-28.61 542.53-30.34L542.53-30.34L542.53-30.34Q547.20-33.92 555.33-33.92L555.33-33.92L555.33-33.92Q559.49-33.92 561.95-32.26L561.95-32.26L561.95-32.26Q564.42-30.59 564.42-27.78L564.42-27.78L564.42-27.78Q564.42-24.96 562.72-23.36L562.72-23.36L562.72-23.36Q561.02-21.76 557.95-21.76L557.95-21.76L557.95-21.76Q555.84-21.76 554.82-22.46Z" fill="url(#editing-sticker-gradient)" stroke="#e1e7e7" stroke-width="0"></path></g></g><style>text {
  font-size: 64px;
  font-family: Arial Black;
  dominant-baseline: central;
  text-anchor: middle;
}</style></svg>